HIERARCHY
ROOT Hips
{
  OFFSET -4.35178 90.3298 111.633
  CHANNELS 6 Xposition Yposition Zposition Zrotation Xrotation Yrotation
  JOINT LeftUpLeg
  {
    OFFSET 0.103456 1.85784 10.5485
    CHANNELS 6 Xposition Yposition Zposition Zrotation Xrotation Yrotation
    JOINT LeftLeg
    {
      OFFSET 43.5 -4.2e-05 0
      CHANNELS 6 Xposition Yposition Zposition Zrotation Xrotation Yrotation
      JOINT LeftFoot
      {
        OFFSET 42.3722 1.9e-05 0
        CHANNELS 6 Xposition Yposition Zposition Zrotation Xrotation Yrotation
        JOINT LeftToe
        {
          OFFSET 17.3 0 0
          CHANNELS 6 Xposition Yposition Zposition Zrotation Xrotation Yrotation
          End Site
          {
            OFFSET 0 0 0
          }
        }
      }
    }
  }
  JOINT RightUpLeg
  {
    OFFSET 0.103456 1.85782 -10.5485
    CHANNELS 6 Xposition Yposition Zposition Zrotation Xrotation Yrotation
    JOINT RightLeg
    {
      OFFSET 43.5 -2.7e-05 0
      CHANNELS 6 Xposition Yposition Zposition Zrotation Xrotation Yrotation
      JOINT RightFoot
      {
        OFFSET 42.3723 0 0
        CHANNELS 6 Xposition Yposition Zposition Zrotation Xrotation Yrotation
        JOINT RightToe
        {
          OFFSET 17.3 0 1.7e-05
          CHANNELS 6 Xposition Yposition Zposition Zrotation Xrotation Yrotation
          End Site
          {
            OFFSET 0 0 0
          }
        }
      }
    }
  }
  JOINT Spine
  {
    OFFSET 6.90197 -2.60373 0
    CHANNELS 6 Xposition Yposition Zposition Zrotation Xrotation Yrotation
    JOINT Spine1
    {
      OFFSET 12.5881 0 0
      CHANNELS 6 Xposition Yposition Zposition Zrotation Xrotation Yrotation
      JOINT Spine2
      {
        OFFSET 12.3432 -1.8e-05 0
        CHANNELS 6 Xposition Yposition Zposition Zrotation Xrotation Yrotation
        JOINT Neck
        {
          OFFSET 25.8329 2.3e-05 0
          CHANNELS 6 Xposition Yposition Zposition Zrotation Xrotation Yrotation
          JOINT Head
          {
            OFFSET 11.7666 0 0
            CHANNELS 6 Xposition Yposition Zposition Zrotation Xrotation Yrotation
            End Site
            {
              OFFSET 0 0 0
            }
          }
        }
        JOINT LeftShoulder
        {
          OFFSET 19.7459 -1.48035 6.0001
          CHANNELS 6 Xposition Yposition Zposition Zrotation Xrotation Yrotation
          JOINT LeftArm
          {
            OFFSET 11.2841 1.8e-05 -2e-05
            CHANNELS 6 Xposition Yposition Zposition Zrotation Xrotation Yrotation
            JOINT LeftForeArm
            {
              OFFSET 33 -1.3e-05 1.9e-05
              CHANNELS 6 Xposition Yposition Zposition Zrotation Xrotation Yrotation
              JOINT LeftHand
              {
                OFFSET 25.2 3.2e-05 1.1e-05
                CHANNELS 6 Xposition Yposition Zposition Zrotation Xrotation Yrotation
                End Site
                {
                  OFFSET 0 0 0
                }
              }
            }
          }
        }
        JOINT RightShoulder
        {
          OFFSET 19.7461 -1.48036 -6.00008
          CHANNELS 6 Xposition Yposition Zposition Zrotation Xrotation Yrotation
          JOINT RightArm
          {
            OFFSET 11.2841 0 0
            CHANNELS 6 Xposition Yposition Zposition Zrotation Xrotation Yrotation
            JOINT RightForeArm
            {
              OFFSET 33.0001 1.6e-05 0
              CHANNELS 6 Xposition Yposition Zposition Zrotation Xrotation Yrotation
              JOINT RightHand
              {
                OFFSET 25.1998 0.000123 0.000432
                CHANNELS 6 Xposition Yposition Zposition Zrotation Xrotation Yrotation
                End Site
                {
                  OFFSET 0 0 0
                }
              }
            }
          }
        }
      }
    }
  }
}
MOTION
Frames:	5
Frame Time:	0.0333333
7.35263 88.0945 86.0631 119.246 -86.951 27.7889 0.103456 1.85784 10.5485 18.9647 9.30636 177.716 43.5 -4.2e-05 1e-05 -30.6023 -12.1158 -9.41 42.3722 1.9e-05 0 53.3399 38.9943 -13.8454 17.3 1.42109e-14 3e-06 21.4546 -1e-06 0.003093 0.103456 1.85782 -10.5485 -30.8901 -10.6797 -173.685 43.5 -2.7e-05 4e-06 -36.9198 3.95572 1.86844 42.3723 0 1e-05 76.1092 9.98877 7.88953 17.3 -6e-06 1.7e-05 21.4546 -1.9e-05 -0.003116 6.90197 -2.60373 -3e-06 11.7088 -0.426954 -1.30033 12.5881 1e-05 8e-06 13.4081 -0.969435 -2.46155 12.3432 -1.8e-05 -5e-06 13.1096 -0.919081 -2.38163 25.8329 2.3e-05 7e-06 6.26745 7.93044 -10.7069 11.7666 -8e-06 -6e-06 -40.9097 3.89245 10.9891 19.7459 -1.48035 6.0001 179.125 6.8654 -102.758 11.2841 1.8e-05 -2e-05 -14.3934 -29.6927 69.4341 33 -1.3e-05 1.9e-05 -104.402 -14.4549 -2.1372 25.2 3.2e-05 1.1e-05 -26.6486 3.42361 11.1917 19.7461 -1.48036 -6.00008 -164.544 -2.29624 72.5729 11.2841 0 -1e-06 -10.5004 -11.6685 -46.432 33.0001 1.6e-05 -1e-06 -107.769 5.1793 28.2191 25.1998 0.000123 0.000432 -1.28522 -24.6383 17.8509 
3.73423 88.948 79.7721 109.565 -84.3343 18.7605 0.103456 1.85784 10.5485 20.3925 9.84769 177.91 43.5 -4.2e-05 1e-05 -29.6039 -13.3273 -8.54222 42.3722 1.9e-05 -7.10543e-15 52.0606 46.6777 -22.4221 17.3 1.42109e-14 3e-06 21.4546 -1e-06 0.003093 0.103456 1.85782 -10.5485 -26.8633 -8.55058 -172.114 43.5 -2.7e-05 4e-06 -25.5181 5.42963 1.05864 42.3723 0 1e-05 76.8845 11.0622 5.38619 17.3 -6e-06 1.7e-05 21.4546 -1.9e-05 -0.003116 6.90197 -2.60373 -3e-06 11.2852 -0.587199 -0.936593 12.5881 1e-05 8e-06 12.5651 -1.21221 -1.70927 12.3432 -1.8e-05 -5e-06 12.2695 -1.12761 -1.61522 25.8329 2.3e-05 7e-06 6.51173 7.76764 -10.3671 11.7666 -8e-06 -6e-06 -40.7497 3.44808 10.922 19.7459 -1.48035 6.0001 177.774 6.20242 -103.546 11.2841 1.8e-05 -2e-05 -20.401 -25.5922 68.0731 33 -1.3e-05 1.9e-05 -101.631 -13.3316 -3.92883 25.2 3.2e-05 1.1e-05 -27.89 8.84499 9.32083 19.7461 -1.48036 -6.00008 -164.04 -2.08642 73.0994 11.2841 0 -1e-06 -10.1426 -13.6893 -45.5564 33.0001 1.6e-05 -1e-06 -108.425 4.1758 28.5191 25.1998 0.000123 0.000432 -1.67506 -24.9132 17.8116 
0.221617 88.6746 73.5806 99.174 -81.6408 9.20328 0.103456 1.85784 10.5485 19.7469 10.3307 179.394 43.5 -4.2e-05 1e-05 -35.9601 -15.0254 -8.58203 42.3722 1.9e-05 0 55.8915 50.8164 -27.7087 17.3 0 3e-06 21.4546 -1e-06 0.003093 0.103456 1.85782 -10.5485 -24.6302 -6.73388 -171.491 43.5 -2.7e-05 4e-06 -25.2246 7.74125 -0.658055 42.3723 7.10543e-15 1e-05 77.1041 6.04371 -1.58634 17.3 -6e-06 1.7e-05 21.4546 -1.9e-05 -0.003116 6.90197 -2.60373 -3e-06 10.9751 -0.643757 -0.690726 12.5881 1e-05 8e-06 11.9476 -1.27692 -1.21266 12.3432 -1.8e-05 -5e-06 11.652 -1.17083 -1.11533 25.8329 2.3e-05 7e-06 6.77326 7.68544 -10.071 11.7666 -8e-06 -6e-06 -39.8001 2.96835 11.2188 19.7459 -1.48035 6.0001 176.863 5.67852 -103.591 11.2841 1.8e-05 -2e-05 -24.3231 -21.5792 67.4498 33 -1.3e-05 1.9e-05 -96.5483 -13.4553 -5.67278 25.2 3.2e-05 1.1e-05 -28.2735 13.1108 8.61889 19.7461 -1.48036 -6.00008 -164.1 -1.91658 73.3709 11.2841 0 -1e-06 -9.5322 -14.2771 -44.0567 33.0001 1.6e-05 -1e-06 -107.668 4.09958 28.0478 25.1998 0.000123 0.000432 -1.71559 -24.1054 17.0677 
-3.25296 87.5915 67.5848 91.9057 -78.1636 2.9301 0.103456 1.85784 10.5485 16.3921 9.29302 -178.469 43.5 -4.2e-05 1e-05 -47.5019 -15.7187 -8.19904 42.3722 1.9e-05 0 59.9547 50.2841 -26.3251 17.3 -1.42109e-14 3e-06 21.4546 -1e-06 0.003093 0.103456 1.85782 -10.5485 -25.254 -3.32533 -171.573 43.5 -2.7e-05 4e-06 -34.2416 10.3627 -4.07669 42.3723 0 1e-05 80.7165 6.45209 -7.53934 17.3 -6e-06 1.7e-05 21.4546 -1.9e-05 -0.003116 6.90197 -2.60373 -3e-06 10.747 -0.684958 -0.422549 12.5881 1e-05 8e-06 11.4939 -1.30776 -0.673986 12.3432 -1.8e-05 -5e-06 11.1973 -1.1752 -0.575687 25.8329 2.3e-05 7e-06 6.77357 7.00132 -9.63508 11.7666 -8e-06 -6e-06 -37.8767 2.23115 11.1705 19.7459 -1.48035 6.0001 176.653 5.05591 -102.535 11.2841 1.8e-05 -2e-05 -24.9317 -18.8213 67.6512 33 -1.3e-05 1.9e-05 -88.8337 -14.2062 -5.85411 25.2 3.2e-05 1.1e-05 -27.8383 17.9463 7.85887 19.7461 -1.48036 -6.00008 -164.656 -2.03281 73.0874 11.2841 -2.84217e-14 -1e-06 -8.25227 -12.7042 -41.8339 33.0001 1.6e-05 -1e-06 -105.475 4.0608 26.7773 25.1998 0.000123 0.000432 -1.91407 -22.6968 16.1424 
-6.49951 86.3759 61.9212 87.01 -74.6492 -1.32726 0.103456 1.85784 10.5485 10.6696 8.65038 -175.578 43.5 -4.2e-05 1e-05 -60.5568 -15.4999 -7.31876 42.3722 1.9e-05 0 62.0848 48.6325 -20.134 17.3 0 3e-06 21.4546 -1e-06 0.003093 0.103456 1.85782 -10.5485 -25.4868 -2.2591 -171.997 43.5 -2.7e-05 4e-06 -44.1779 12.38 -6.56002 42.3723 0 1e-05 84.8252 9.87302 -9.45135 17.3 -6e-06 1.7e-05 21.4546 -1.9e-05 -0.003116 6.90197 -2.60373 -3e-06 10.6504 -0.584022 0.00316142 12.5881 1e-05 8e-06 11.3004 -1.02394 0.151324 12.3432 -1.8e-05 -5e-06 10.9963 -0.843847 0.23037 25.8329 2.3e-05 7e-06 6.43536 5.33453 -9.00191 11.7666 -8e-06 -6e-06 -35.841 1.23923 10.3103 19.7459 -1.48035 6.0001 177.216 4.14586 -100.071 11.2841 1.8e-05 -2e-05 -22.4926 -17.3924 67.9368 33 -1.3e-05 1.9e-05 -80.3744 -12.1361 -4.0846 25.2 3.2e-05 1.1e-05 -28.3109 23.4994 6.23656 19.7461 -1.48036 -6.00008 -166.458 -1.77196 72.658 11.2841 0 -1e-06 -7.95077 -10.1815 -38.897 33.0001 1.6e-05 -1e-06 -102.042 2.74388 25.1779 25.1998 0.000123 0.000432 -1.74473 -22.4255 16.5649 
